<svg width="16" height="16" viewBox="0 0 16 16" fill="none" xmlns="http://www.w3.org/2000/svg">
<g clip-path="url(#clip0_1_744)">
<path d="M7.02945 10.2033C6.20395 10.2033 5.39698 9.95848 4.7106 9.49985C4.02422 9.04123 3.48925 8.38937 3.17335 7.6267C2.85744 6.86404 2.77478 6.02482 2.93583 5.21518C3.09688 4.40554 3.4944 3.66183 4.07812 3.07811C4.66183 2.49439 5.40554 2.09688 6.21518 1.93583C7.02482 1.77478 7.86404 1.85744 8.6267 2.17334C9.38937 2.48925 10.0412 3.02422 10.4999 3.7106C10.9585 4.39698 11.2033 5.20395 11.2033 6.02945C11.2056 6.57822 11.0993 7.12202 10.8903 7.62947C10.6814 8.13692 10.3741 8.59797 9.98602 8.98602C9.59798 9.37406 9.13693 9.68141 8.62948 9.89033C8.12202 10.0993 7.57822 10.2056 7.02945 10.2033ZM16.7214 14.4232L11.8989 9.59979C12.6651 8.56803 13.0723 7.31365 13.058 6.02856C13.0524 4.67997 12.593 3.37252 11.7538 2.31684C10.9146 1.26116 9.74451 0.518707 8.43193 0.209096C7.11936 -0.100514 5.74077 0.0407429 4.51826 0.610111C3.29574 1.17948 2.30049 2.14381 1.69283 3.34774C1.08516 4.55168 0.900471 5.92512 1.16851 7.24682C1.43654 8.56851 2.1417 9.7615 3.17037 10.6336C4.19905 11.5057 5.49135 12.0061 6.83909 12.0542C8.18683 12.1024 9.51153 11.6954 10.5998 10.8989L15.4232 15.7223C15.507 15.8102 15.6078 15.8802 15.7194 15.928C15.8311 15.9759 15.9513 16.0005 16.0727 16.0005C16.1942 16.0005 16.3144 15.9759 16.4261 15.928C16.5377 15.8802 16.6385 15.8102 16.7223 15.7223C16.8101 15.6384 16.88 15.5376 16.9278 15.4259C16.9755 15.3142 17.0001 15.194 17 15.0725C16.9999 14.9511 16.9752 14.8309 16.9273 14.7193C16.8794 14.6077 16.8094 14.5069 16.7214 14.4232Z" fill="white"/>
</g>
<defs>
<clipPath id="clip0_1_744">
<rect width="16" height="16" fill="white"/>
</clipPath>
</defs>
</svg>
